Coordinates
version=1
nRows=7
nColumns=40
inDegrees=yes

Units are S.I. units (second, meters, Newtons, ...)
Angles are in degrees.

endheader
time	pelvis_tilt	pelvis_list	pelvis_rotation	pelvis_tx	pelvis_ty	pelvis_tz	hip_flexion_r	hip_adduction_r	hip_rotation_r	knee_angle_r	knee_angle_r_beta	ankle_angle_r	subtalar_angle_r	mtp_angle_r	hip_flexion_l	hip_adduction_l	hip_rotation_l	knee_angle_l	knee_angle_l_beta	ankle_angle_l	subtalar_angle_l	mtp_angle_l	lumbar_extension	lumbar_bending	lumbar_rotation	arm_flex_r	arm_add_r	arm_rot_r	elbow_flex_r	pro_sup_r	wrist_flex_r	wrist_dev_r	arm_flex_l	arm_add_l	arm_rot_l	elbow_flex_l	pro_sup_l	wrist_flex_l	wrist_dev_l
     21.24000000	     -5.59857849	     -5.53967434	      4.29578817	      1.06371996	      0.92320973	      0.46125992	      1.22840916	      0.98999371	    -17.72840606	     17.73547933	     17.73547933	     15.93765088	      0.50489882	     -4.50913506	     27.38764276	     -7.91980422	     -1.02862276	     24.72899490	     24.72899490	      6.00831668	    -14.01816839	      3.67255916	     -8.96775086	      4.22690778	      4.54673499	     24.31720004	    -14.75429582	      2.38529049	     52.55158557	     44.87334409	      0.00000000	      0.00000000	      3.86697692	    -10.71646946	    -13.21361655	     32.92620684	     45.06102672	      0.00000000	      0.00000000
     21.25342857	     -5.62313055	     -5.46120716	      4.12606215	      1.06452420	      0.92374342	      0.45774250	      1.92516208	      0.31703901	    -17.36212349	     19.79850521	     19.79850521	     15.67960885	     -0.31058962	     -5.18898059	     26.96136183	     -7.71144860	     -1.26538832	     24.85985210	     24.85985210	      6.55337200	    -14.01987418	      3.60067611	     -8.88927007	      4.14800688	      4.79598820	     23.10693533	    -15.09021265	      2.38694663	     50.42578782	     44.95311389	      0.00000000	      0.00000000	      4.28224345	    -10.72274184	    -13.05027166	     33.41258666	     45.06175966	      0.00000000	      0.00000000
     21.26685714	     -5.58249823	     -5.37605357	      3.92460217	      1.06530713	      0.92435083	      0.45429548	      2.71736998	     -0.39932019	    -16.94520923	     22.13787609	     22.13787609	     15.27040941	     -1.23754455	     -6.05290815	     26.43040126	     -7.52591322	     -1.59334948	     24.94220927	     24.94220927	      7.06575350	    -13.96492321	      3.48740868	     -8.91933204	      4.08663845	      4.90700461	     21.99639287	    -15.30019791	      2.34141448	     48.29946974	     45.03467446	      0.00000000	      0.00000000	      4.64314504	    -10.80201539	    -12.88145372	     33.90164386	     45.05944799	      0.00000000	      0.00000000
     21.28028571	     -5.57255925	     -5.29970473	      3.68909483	      1.06597975	      0.92484603	      0.45094995	      3.77358486	     -1.15523251	    -16.44040583	     24.84927255	     24.84927255	     14.64781572	     -2.34214140	     -7.18541519	     25.91872307	     -7.36631970	     -1.96694969	     24.98769953	     24.98769953	      7.52445067	    -13.83999798	      3.33939239	     -8.90305613	      4.02324115	      4.97111844	     20.92661254	    -15.44830751	      2.23585665	     46.00694802	     45.12596962	      0.00000000	      0.00000000	      4.94983687	    -10.91352513	    -12.68597981	     34.48369002	     45.05380972	      0.00000000	      0.00000000
     21.29371429	     -5.54007212	     -5.30295193	      3.43919393	      1.06657317	      0.92535291	      0.44781899	      4.83739182	     -1.71485938	    -15.61171052	     27.35994379	     27.35994379	     12.52657920	     -4.58237200	    -11.56847829	     25.39498921	     -7.31290044	     -2.33091726	     25.03030451	     25.03030451	      8.01348460	    -13.64150277	      3.24562541	     -8.84702448	      4.04813469	      4.25668888	     21.67487865	    -14.40361230	      1.14701983	     39.58437461	     45.45867874	      0.00000000	      0.00000000	      4.26163012	    -11.52990453	    -11.42965935	     36.15541560	     44.98052398	      0.00000000	      0.00000000
     21.30714286	     -5.48788610	     -5.21004574	      3.21805087	      1.06700360	      0.92572828	      0.44459626	      6.27092682	     -2.59195679	    -15.17072880	     30.75929488	     30.75929488	     11.59902439	     -5.62541653	    -12.50467665	     24.84181196	     -7.14348025	     -2.74357339	     25.04023104	     25.04023104	      8.40098574	    -13.47871091	      3.01543689	     -8.93424175	      3.98474706	      4.21800757	     20.26696518	    -14.70654120	      1.03329585	     38.48148555	     45.50237972	      0.00000000	      0.00000000	      4.61880915	    -11.65240430	    -11.39878093	     36.78044640	     45.00011927	      0.00000000	      0.00000000
     21.32057143	     -5.40858595	     -5.09175874	      2.93076198	      1.06729889	      0.92602808	      0.44156852	      7.89291473	     -3.47448099	    -14.48180154	     34.42171181	     34.42171181	     10.34506215	     -6.93423800	    -13.40743169	     24.27193818	     -6.97460146	     -3.17429447	     25.08500711	     25.08500711	      8.81802056	    -13.34643403	      2.75499769	     -9.08903043	      3.88755013	      4.21134931	     18.96756249	    -14.96685612	      0.88946895	     37.24197379	     45.55378724	      0.00000000	      0.00000000	      4.97622849	    -11.85129985	    -11.34689880	     37.44013236	     45.01433908	      0.00000000	      0.00000000
